<svg width="72" height="52" viewBox="0 0 72 52" fill="none" xmlns="http://www.w3.org/2000/svg">
<path d="M18 26.0616C18 25.3441 18.1746 24.6335 18.5138 23.9705C18.853 23.3076 19.3502 22.7052 19.977 22.1978C20.6038 21.6904 21.3479 21.2879 22.1669 21.0133C22.9858 20.7387 23.8636 20.5974 24.75 20.5974C25.6364 20.5974 26.5142 20.7387 27.3331 21.0133C28.1521 21.2879 28.8962 21.6904 29.523 22.1978C30.1498 22.7052 30.647 23.3076 30.9862 23.9705C31.3254 24.6335 31.5 25.3441 31.5 26.0616C31.5 27.5109 30.7888 28.9007 29.523 29.9255C28.2571 30.9502 26.5402 31.5259 24.75 31.5259C22.9598 31.5259 21.2429 30.9502 19.977 29.9255C18.7112 28.9007 18 27.5109 18 26.0616ZM51.75 20.5974C49.9598 20.5974 48.2429 21.1731 46.977 22.1978C45.7112 23.2226 45 24.6124 45 26.0616C45 27.5109 45.7112 28.9007 46.977 29.9255C48.2429 30.9502 49.9598 31.5259 51.75 31.5259C53.5402 31.5259 55.2571 30.9502 56.523 29.9255C57.7888 28.9007 58.5 27.5109 58.5 26.0616C58.5 24.6124 57.7888 23.2226 56.523 22.1978C55.2571 21.1731 53.5402 20.5974 51.75 20.5974Z" fill="#313131"/>
<path d="M0 2.38307C0 1.9 0.237053 1.43671 0.65901 1.09513C1.08097 0.753545 1.65326 0.561646 2.25 0.561646H6.75C7.34674 0.561646 7.91903 0.753545 8.34099 1.09513C8.76295 1.43671 9 1.9 9 2.38307V11.4902H69.75C70.3467 11.4902 70.919 11.6821 71.341 12.0237C71.7629 12.3653 72 12.8286 72 13.3116V38.8116C72 39.2947 71.7629 39.758 71.341 40.0996C70.919 40.4412 70.3467 40.6331 69.75 40.6331H9V49.7402C9 50.2233 8.76295 50.6866 8.34099 51.0282C7.91903 51.3697 7.34674 51.5616 6.75 51.5616C6.15326 51.5616 5.58097 51.3697 5.15901 51.0282C4.73705 50.6866 4.5 50.2233 4.5 49.7402V4.2045H2.25C1.65326 4.2045 1.08097 4.0126 0.65901 3.67102C0.237053 3.32943 0 2.86615 0 2.38307ZM24.75 16.9545C21.7663 16.9545 18.9048 17.914 16.795 19.6219C14.6853 21.3298 13.5 23.6463 13.5 26.0616C13.5 28.477 14.6853 30.7934 16.795 32.5014C18.9048 34.2093 21.7663 35.1688 24.75 35.1688C27.7337 35.1688 30.5952 34.2093 32.705 32.5014C34.8147 30.7934 36 28.477 36 26.0616C36 23.6463 34.8147 21.3298 32.705 19.6219C30.5952 17.914 27.7337 16.9545 24.75 16.9545ZM40.5 26.0616C40.5 28.477 41.6853 30.7934 43.795 32.5014C45.9048 34.2093 48.7663 35.1688 51.75 35.1688C54.7337 35.1688 57.5952 34.2093 59.705 32.5014C61.8147 30.7934 63 28.477 63 26.0616C63 23.6463 61.8147 21.3298 59.705 19.6219C57.5952 17.914 54.7337 16.9545 51.75 16.9545C48.7663 16.9545 45.9048 17.914 43.795 19.6219C41.6853 21.3298 40.5 23.6463 40.5 26.0616Z" fill="#313131"/>
<path d="M13.5 42.4545H29.25V46.0974C29.25 46.5804 29.0129 47.0437 28.591 47.3853C28.169 47.7269 27.5967 47.9188 27 47.9188H15.75C15.1533 47.9188 14.581 47.7269 14.159 47.3853C13.7371 47.0437 13.5 46.5804 13.5 46.0974V42.4545ZM31.5 46.0974V42.4545H49.5V46.0974C49.5 46.5804 49.2629 47.0437 48.841 47.3853C48.419 47.7269 47.8467 47.9188 47.25 47.9188H33.75C33.1533 47.9188 32.581 47.7269 32.159 47.3853C31.7371 47.0437 31.5 46.5804 31.5 46.0974Z" fill="#313131"/>
</svg>
