<svg width="253" height="210" viewBox="0 0 253 210" fill="none" xmlns="http://www.w3.org/2000/svg">
<path d="M114.8 0.583389C82.6335 5.2457 56.2343 27.2149 46.0939 57.7497C43.0064 67.0743 41.8395 74.5325 41.8395 84.5567C41.7827 94.5809 42.947 101.807 46.1533 111.537L48.5413 118.762L24.2409 143.063C7.74987 159.554 0 167.714 0 168.527C0 169.168 0.524058 170.216 1.10749 170.742C2.15561 171.734 3.55482 171.791 20.3376 171.383L38.4034 170.918L38.0549 189.216C37.7064 207.282 37.7064 207.514 38.9301 208.622C39.7458 209.321 40.621 209.554 41.4936 209.321C42.25 209.148 53.5572 198.308 66.6097 185.197L90.3859 161.364L95.34 163.346C104.665 167.133 116.377 169.348 126.574 169.348C136.072 169.348 148.719 166.844 157.693 163.23L162.879 161.191L186.771 185.083C206.118 204.432 210.956 208.975 212.179 208.975C215.151 208.975 215.21 208.627 214.978 189.046L214.745 170.923L232.984 171.039C246.444 171.155 251.458 170.98 252.098 170.456C254.489 168.473 253.789 167.66 228.673 142.485L204.367 118.179L206.466 111.826C210.021 101.045 210.661 96.9663 210.661 84.5541C210.661 72.1987 210.021 68.0037 206.582 57.6309C202.152 44.3436 195.102 33.3306 184.554 23.2496C172.841 12.0611 158.622 4.60289 142.771 1.45596C135.37 -0.056839 122.026 -0.464737 114.8 0.583389ZM140.264 7.1096C146.323 8.15771 155.764 11.1885 160.951 13.8114C195.507 31.1776 212.525 69.6972 201.861 106.874C199.937 113.692 194.4 124.881 189.973 130.883C177.909 147.258 159.786 158.563 139.624 162.177C131.815 163.576 119.054 163.457 111.477 161.826C78.4358 154.892 54.3679 130.124 48.6574 97.1418C47.5499 90.7912 47.5499 78.2034 48.6574 71.6772C52.9118 47.0284 68.3548 25.9318 90.4401 14.6271C99.646 9.84865 109.438 7.05022 120.335 5.94531C124.297 5.53741 134.905 6.17766 140.264 7.1096ZM222.023 144.578L242.709 165.324L226.682 164.916C210.891 164.508 210.656 164.567 209.549 165.732C208.5 166.896 208.5 167.947 208.733 182.747L208.965 198.538L188.744 178.317L168.522 158.155L173.825 154.6C183.441 148.19 194.395 136.358 199.816 126.685C200.632 125.17 201.331 123.887 201.331 123.887C201.331 123.887 210.659 133.214 222.023 144.578ZM53.5547 127.795C59.3245 137.469 68.298 147.258 77.2715 153.436C80.1268 155.416 82.9252 157.398 83.506 157.806C84.438 158.506 82.5741 160.545 64.2165 178.843L43.8789 199.181L44.1707 183.506C44.3462 172.142 44.23 167.479 43.7628 166.547C43.0632 165.264 42.947 165.264 26.6315 165.264H10.1972L30.5942 144.867C41.7827 133.622 51.1073 124.473 51.2803 124.473C51.4533 124.473 52.504 125.988 53.5547 127.795Z" fill="white"/>
<path d="M124.241 43.0064C123.949 43.4143 120.862 49.3571 117.48 56.1182C114.1 62.9361 110.953 68.5304 110.546 68.5304C107.747 68.5898 83.0983 72.6093 82.631 73.0765C82.2825 73.4251 82.0476 74.3596 82.0476 75.1754C82.0476 76.3396 84.2626 78.8464 92.188 86.5394L102.385 96.4475L99.9973 110.491C97.4338 125.41 97.4906 126.342 100.289 126.691C101.164 126.807 106.175 124.476 114.041 120.397L126.394 113.93L138.633 120.34C145.335 123.895 151.51 126.809 152.328 126.809C155.243 126.809 155.3 125.41 152.677 110.434L150.346 96.6824L160.543 86.6014C171.207 75.9963 172.08 74.6565 169.46 73.0249C168.703 72.5576 162.058 71.334 154.659 70.2859L141.197 68.3626L135.138 56.126C131.815 49.4242 128.728 43.5382 128.32 43.1303C127.328 42.1339 125.057 42.0745 124.241 43.0064ZM131.699 62.6444C134.554 68.4142 137.177 73.2495 137.526 73.4844C138.05 73.7761 159.319 77.2148 161.01 77.2716C161.242 77.2716 157.747 80.8858 153.201 85.2564C148.714 89.627 144.808 93.6465 144.519 94.1731C144.171 94.8134 144.695 99.3595 145.975 106.701C147.083 113.055 147.958 118.298 147.839 118.357C147.78 118.417 143.117 116.026 137.523 113.055C131.931 110.021 126.98 107.574 126.513 107.574C126.045 107.574 121.094 109.965 115.5 112.877C109.965 115.791 105.243 118.004 105.127 117.887C104.951 117.771 105.651 112.877 106.642 107.107C107.574 101.337 108.39 95.9751 108.39 95.2187C108.39 94.1112 106.291 91.78 99.9405 85.7211C95.2782 81.3505 91.5504 77.5633 91.7233 77.4471C91.8395 77.331 96.3856 76.572 101.804 75.7562C107.166 74.9998 112.469 74.2408 113.517 74.0653C115.324 73.7168 115.673 73.1901 120.802 62.9361C123.717 57.0502 126.221 52.2149 126.28 52.2149C126.396 52.2149 128.784 56.934 131.699 62.6444Z" fill="white"/>
</svg>
