<svg width="292" height="292" viewBox="0 0 292 292" fill="none" xmlns="http://www.w3.org/2000/svg">
<g filter="url(#filter0_d_426_3)">
<path d="M249.207 256.011H42.7927C40.8566 256.011 38.9998 255.242 37.6308 253.873C36.2618 252.504 35.4927 250.647 35.4927 248.711C35.4927 246.775 36.2618 244.918 37.6308 243.549C38.9998 242.18 40.8566 241.411 42.7927 241.411H249.207C251.144 241.411 253 242.18 254.369 243.549C255.738 244.918 256.507 246.775 256.507 248.711C256.507 250.647 255.738 252.504 254.369 253.873C253 255.242 251.144 256.011 249.207 256.011Z" fill="white"/>
<path d="M146 134.539C136.205 134.539 126.63 131.634 118.486 126.193C110.342 120.751 103.995 113.017 100.246 103.967C96.498 94.9183 95.5173 84.9608 97.4282 75.3543C99.339 65.7477 104.056 56.9235 110.982 49.9976C117.908 43.0716 126.732 38.355 136.338 36.4442C145.945 34.5333 155.902 35.514 164.951 39.2623C174.001 43.0106 181.735 49.3581 187.177 57.5022C192.618 65.6462 195.523 75.221 195.523 85.0158C195.492 98.1407 190.265 110.719 180.984 120C171.703 129.281 159.125 134.508 146 134.539V134.539ZM146 50.0926C139.093 50.0926 132.341 52.1408 126.597 55.9782C120.854 59.8156 116.378 65.2699 113.735 71.6512C111.092 78.0326 110.4 85.0545 111.748 91.829C113.095 98.6034 116.421 104.826 121.305 109.71C126.189 114.594 132.412 117.92 139.187 119.268C145.961 120.615 152.983 119.924 159.364 117.281C165.746 114.637 171.2 110.161 175.037 104.418C178.875 98.675 180.923 91.9229 180.923 85.0158C180.911 75.7571 177.228 66.881 170.681 60.3341C164.135 53.7873 155.258 50.1042 146 50.0926V50.0926Z" fill="white"/>
<path d="M219 256.011C217.064 256.011 215.207 255.242 213.838 253.873C212.469 252.504 211.7 250.647 211.7 248.711V189.537C211.7 170.557 181.61 154.614 146 154.614C110.391 154.614 80.3002 170.601 80.3002 189.537V248.711C80.3002 250.647 79.5311 252.504 78.1621 253.873C76.7931 255.242 74.9363 256.011 73.0002 256.011C71.0641 256.011 69.2073 255.242 67.8383 253.873C66.4693 252.504 65.7002 250.647 65.7002 248.711V189.537C65.7002 161.797 100.974 140.014 146 140.014C191.027 140.014 226.3 161.768 226.3 189.537V248.711C226.3 250.647 225.531 252.504 224.162 253.873C222.793 255.242 220.936 256.011 219 256.011Z" fill="white"/>
</g>
<defs>
<filter id="filter0_d_426_3" x="-4" y="0" width="300" height="300" filterUnits="userSpaceOnUse" color-interpolation-filters="sRGB">
<feFlood flood-opacity="0" result="BackgroundImageFix"/>
<feColorMatrix in="SourceAlpha" type="matrix" values="0 0 0 0 0 0 0 0 0 0 0 0 0 0 0 0 0 0 127 0" result="hardAlpha"/>
<feOffset dy="4"/>
<feGaussianBlur stdDeviation="2"/>
<feComposite in2="hardAlpha" operator="out"/>
<feColorMatrix type="matrix" values="0 0 0 0 0 0 0 0 0 0 0 0 0 0 0 0 0 0 0.25 0"/>
<feBlend mode="normal" in2="BackgroundImageFix" result="effect1_dropShadow_426_3"/>
<feBlend mode="normal" in="SourceGraphic" in2="effect1_dropShadow_426_3" result="shape"/>
</filter>
</defs>
</svg>
