<svg width="267" height="268" viewBox="0 0 267 268" fill="none" xmlns="http://www.w3.org/2000/svg">
<path d="M267 133.554C267 59.8026 207.252 0 133.5 0C59.7481 0.0544898 0 59.8026 0 133.554C0 207.306 59.7481 267.054 133.473 267.054C163.742 267.054 191.45 256.756 213.872 239.81C214.799 238.774 215.398 237.412 215.398 235.941C215.398 232.671 212.783 230.029 209.486 230.029C207.797 230.029 206.271 230.683 205.154 231.827H205.1C185.075 246.566 160.391 255.394 133.582 255.394C66.8045 255.394 12.6961 201.258 12.6961 134.508C12.6961 67.7308 66.859 13.5952 133.582 13.5952C200.386 13.5407 254.467 67.7036 254.467 134.454C254.467 154.86 249.699 174.04 240.79 190.905V190.987C240.6 191.559 240.436 192.104 240.436 192.676C240.436 195.918 243.079 198.588 246.376 198.588C248.937 198.588 251.062 196.981 251.879 194.719V194.747C261.388 176.411 267 155.65 267 133.554Z" fill="white"/>
<path d="M60.8923 79.991L58.4675 81.9799V115.736C58.4675 163.687 86.884 207.088 130.83 226.269L133.473 227.44L136.224 226.269C180.17 207.088 208.56 163.687 208.56 115.736V81.9799L206.135 79.991C185.81 62.9902 160.036 53.6179 133.5 53.6179C107.018 53.6179 81.1898 62.9902 60.8923 79.991ZM195.155 115.736C195.155 157.394 171.043 195.21 133.5 212.837C95.9293 195.182 71.8448 157.394 71.8448 115.736V88.2734C89.3905 74.5148 111.159 66.9952 133.5 66.9952C155.868 66.9952 177.637 74.542 195.155 88.2734V115.736Z" fill="white"/>
<path d="M128.569 164.695C128.351 164.478 128.187 164.26 128.078 164.123L102.986 137.342C101.242 134.072 97.237 132.846 93.9677 134.508C90.6983 136.197 89.4178 140.23 91.1342 143.526L116.39 170.553C117.126 171.888 121.349 178.563 128.596 178.645C128.623 178.645 128.65 178.645 128.705 178.645C132.083 178.645 136.933 177.119 141.456 169.409L182.405 109.77C183.93 106.419 182.459 102.468 179.108 100.915C175.811 99.4167 171.806 100.861 170.253 104.212L129.658 163.17C129.223 163.878 128.868 164.369 128.569 164.695Z" fill="white"/>
</svg>
