<svg width="39" height="39" viewBox="0 0 39 39" fill="none" xmlns="http://www.w3.org/2000/svg">
<path d="M17.8804 2.66939C18.4404 1.1924 20.5596 1.1924 21.1214 2.66939L24.7438 12.7038C24.9976 13.3688 25.6433 13.8116 26.3643 13.8116H35.2665C36.9115 13.8116 37.629 15.8591 36.3358 16.8618L30.0008 22.5615C29.717 22.7797 29.5097 23.0821 29.4084 23.4254C29.3072 23.7687 29.3173 24.1353 29.4373 24.4725L31.7508 34.2777C32.3143 35.8527 30.4908 37.2054 29.1118 36.2359L20.5071 30.776C20.2124 30.5689 19.861 30.4577 19.5009 30.4577C19.1407 30.4577 18.7893 30.5689 18.4946 30.776L9.88994 36.2359C8.5127 37.2054 6.68746 35.8509 7.25095 34.2777L9.56444 24.4725C9.68445 24.1353 9.69456 23.7687 9.59333 23.4254C9.4921 23.0821 9.28472 22.7797 9.00094 22.5615L2.66598 16.8618C1.37099 15.8591 2.09199 13.8116 3.73348 13.8116H12.6357C12.9862 13.8127 13.3288 13.7074 13.6181 13.5096C13.9075 13.3118 14.13 13.0308 14.2562 12.7038L17.8786 2.66939H17.8804Z" stroke="black" stroke-width="3" stroke-linecap="round" stroke-linejoin="round"/>
</svg>
